<svg width="20" height="20" viewBox="0 0 20 20" fill="none" xmlns="http://www.w3.org/2000/svg">
<path d="M20 8.74845C20 8.22374 19.5733 7.79722 19.0486 7.79722H17.5358C17.3775 7.25283 17.1602 6.72749 16.8866 6.22909L17.9557 5.15957C18.1324 4.98267 18.2344 4.73754 18.2344 4.48663C18.2344 4.23209 18.1356 3.99337 17.9557 3.81369L16.1861 2.04385C15.8411 1.6984 15.1865 1.69775 14.8406 2.04385L13.7711 3.11337C13.2734 2.83957 12.7474 2.62225 12.2028 2.46374V0.951444C12.2028 0.426738 11.776 0 11.2518 0H8.74845C8.22374 0 7.79722 0.426738 7.79722 0.951444V2.46396C7.25262 2.62246 6.72663 2.83979 6.22866 3.11358L5.15914 2.04406C4.79979 1.68492 4.17326 1.68492 3.81412 2.04406L2.04385 3.8139C1.67294 4.18481 1.67294 4.78824 2.04385 5.15914L3.11316 6.22866C2.83957 6.72706 2.62225 7.25283 2.46374 7.79722H0.951444C0.426738 7.79722 0 8.22396 0 8.74845V11.2513C0 11.776 0.426738 12.2026 0.951444 12.2026H2.46396C2.62225 12.747 2.83979 13.2727 3.11337 13.7709L2.04428 14.8402C1.86738 15.0171 1.76556 15.2625 1.76556 15.5132C1.76556 15.7675 1.86439 16.0066 2.04406 16.1861L3.8139 17.9557C4.15914 18.3012 4.81369 18.302 5.15936 17.9557L6.22888 16.8862C6.72684 17.1598 7.25262 17.3775 7.79743 17.5358V19.0483C7.79743 19.573 8.22417 19.9998 8.74866 19.9998H11.2518C11.7765 19.9998 12.2028 19.573 12.2028 19.0483V17.5358C12.7474 17.3775 13.2734 17.1602 13.7711 16.8862L14.8406 17.9557C15.2002 18.3151 15.8263 18.3151 16.1857 17.9557L17.9557 16.1861C18.3266 15.8152 18.3266 15.2118 17.9557 14.8409L16.8866 13.7711C17.1602 13.2729 17.3775 12.7472 17.5358 12.2028H19.0483C19.573 12.2028 19.9998 11.776 19.9998 11.2518V8.74845H20ZM13.4646 10C13.4646 11.9106 11.9104 13.4646 10 13.4646C8.08963 13.4646 6.5354 11.9104 6.5354 10C6.5354 8.08963 8.08963 6.5354 10 6.5354C11.9106 6.5354 13.4646 8.08963 13.4646 10Z" fill="#636363"/>
</svg>
