<svg width="17" height="20" viewBox="0 0 17 20" fill="none" xmlns="http://www.w3.org/2000/svg">
<path d="M0.303572 2.5H4.25L5.525 0.75C5.69466 0.517132 5.91466 0.328126 6.16757 0.197949C6.42049 0.067772 6.69938 0 6.98214 0L10.0179 0C10.3006 0 10.5795 0.067772 10.8324 0.197949C11.0853 0.328126 11.3053 0.517132 11.475 0.75L12.75 2.5H16.6964C16.7769 2.5 16.8542 2.53292 16.9111 2.59153C16.968 2.65013 17 2.72962 17 2.8125V3.4375C17 3.52038 16.968 3.59987 16.9111 3.65847C16.8542 3.71708 16.7769 3.75 16.6964 3.75H15.9792L14.7194 18.293C14.6787 18.7592 14.47 19.193 14.1343 19.5088C13.7987 19.8247 13.3604 19.9999 12.9056 20H4.09442C3.63964 19.9999 3.20133 19.8247 2.86568 19.5088C2.53003 19.193 2.32132 18.7592 2.28058 18.293L1.02076 3.75H0.303572C0.223059 3.75 0.145844 3.71708 0.088913 3.65847C0.0319824 3.59987 0 3.52038 0 3.4375V2.8125C0 2.72962 0.0319824 2.65013 0.088913 2.59153C0.145844 2.53292 0.223059 2.5 0.303572 2.5ZM10.5036 1.5C10.4468 1.4226 10.3734 1.35976 10.2892 1.31639C10.2049 1.27302 10.1121 1.2503 10.0179 1.25H6.98214C6.88794 1.2503 6.79508 1.27302 6.71082 1.31639C6.62656 1.35976 6.55319 1.4226 6.49643 1.5L5.76786 2.5H11.2321L10.5036 1.5ZM3.49107 18.1797C3.50357 18.3354 3.5726 18.4806 3.68441 18.5863C3.79623 18.692 3.94262 18.7504 4.09442 18.75H12.9056C13.0574 18.7504 13.2038 18.692 13.3156 18.5863C13.4274 18.4806 13.4964 18.3354 13.5089 18.1797L14.7612 3.75H2.23884L3.49107 18.1797Z" fill="#636363"/>
</svg>
