<svg width="19" height="19" viewBox="0 0 19 19" fill="none" xmlns="http://www.w3.org/2000/svg">
<path d="M18.3033 2.08777L16.9113 0.695801C16.4478 0.231934 15.8399 0 15.2321 0C14.6242 0 14.0164 0.231934 13.5525 0.69543L0.475916 13.772L0.00462689 18.0107C-0.0547481 18.5443 0.365701 19 0.88783 19C0.920858 19 0.953885 18.9981 0.987654 18.9944L5.22332 18.5265L18.3036 5.44617C19.231 4.51881 19.231 3.01514 18.3033 2.08777ZM4.67818 17.3924L1.2259 17.775L1.61035 14.3175L11.4031 4.52475L14.4747 7.59629L4.67818 17.3924ZM17.4639 4.60676L15.3141 6.7565L12.2426 3.68496L14.3923 1.53521C14.6164 1.31107 14.9148 1.1875 15.2321 1.1875C15.5494 1.1875 15.8474 1.31107 16.0719 1.53521L17.4639 2.92719C17.9266 3.39031 17.9266 4.14363 17.4639 4.60676Z" fill="#636363"/>
</svg>
