<svg width="20" height="20" viewBox="0 0 20 20" fill="none" xmlns="http://www.w3.org/2000/svg">
<path d="M19.2666 2.19766L17.8014 0.732422C17.3135 0.244141 16.6737 0 16.0338 0C15.394 0 14.7541 0.244141 14.2659 0.732031L0.501016 14.4969L0.00492181 18.9586C-0.0575782 19.5203 0.385 20 0.934609 20C0.969375 20 1.00414 19.998 1.03969 19.9941L5.49828 19.5016L19.267 5.73281C20.2432 4.75664 20.2432 3.17383 19.2666 2.19766ZM4.92445 18.3078L1.29047 18.7105L1.69516 15.0711L12.0034 4.76289L15.2366 7.99609L4.92445 18.3078ZM18.3831 4.84922L16.1202 7.11211L12.887 3.87891L15.1498 1.61602C15.3858 1.38008 15.6998 1.25 16.0338 1.25C16.3678 1.25 16.6815 1.38008 16.9178 1.61602L18.3831 3.08125C18.8702 3.56875 18.8702 4.36172 18.3831 4.84922Z" fill="#636363"/>
</svg>
