<svg width="20" height="20" viewBox="0 0 20 20" fill="none" xmlns="http://www.w3.org/2000/svg">
<path d="M19.6487 7.86157L17.1462 5.82204V2.56025C17.1462 2.19294 16.8473 1.89407 16.48 1.89407H14.9054C14.5381 1.89407 14.2393 2.19294 14.2393 2.56025V3.45274L10.8955 0.72753C10.6536 0.530462 10.3348 0.421875 9.99782 0.421875C9.66219 0.421875 9.34491 0.529796 9.10436 0.725834L0.3512 7.86151C-0.046508 8.18558 -0.0226467 8.46785 0.0269533 8.60727C0.0764322 8.74638 0.23577 8.97978 0.746668 8.97978H1.94524V18.3636C1.94524 19.0333 2.4886 19.5781 3.15648 19.5781H6.94158C7.60382 19.5781 8.12253 19.0446 8.12253 18.3636V14.5155C8.12253 14.1857 8.42564 13.8853 8.75843 13.8853H11.302C11.6192 13.8853 11.8774 14.168 11.8774 14.5155V18.3636C11.8774 19.0219 12.4459 19.5781 13.1189 19.5781H16.8434C17.5113 19.5781 18.0546 19.0333 18.0546 18.3636V8.97978H19.2532C19.7641 8.97978 19.9234 8.74638 19.9729 8.60727C20.0225 8.46785 20.0464 8.18558 19.6487 7.86157Z" fill="white"/>
</svg>
